<svg width="16" height="16" viewBox="0 0 16 16" fill="none" xmlns="http://www.w3.org/2000/svg">
<path d="M4.00065 9.3334L5.00065 7.40006C5.10937 7.18416 5.27473 7.00187 5.47906 6.8727C5.68338 6.74352 5.91898 6.67233 6.16065 6.66673H13.334M13.334 6.66673C13.5377 6.66637 13.7387 6.71269 13.9217 6.80212C14.1047 6.89155 14.2648 7.02172 14.3897 7.18264C14.5146 7.34356 14.6009 7.53095 14.6421 7.73043C14.6833 7.92991 14.6782 8.13618 14.6273 8.3334L13.6007 12.3334C13.5264 12.6211 13.3581 12.8758 13.1226 13.0569C12.8871 13.2381 12.5978 13.3354 12.3007 13.3334H2.66732C2.3137 13.3334 1.97456 13.1929 1.72451 12.9429C1.47446 12.6928 1.33398 12.3537 1.33398 12.0001V3.3334C1.33398 2.97978 1.47446 2.64064 1.72451 2.39059C1.97456 2.14054 2.3137 2.00006 2.66732 2.00006H5.26732C5.49031 1.99788 5.71029 2.05166 5.90712 2.15648C6.10395 2.2613 6.27134 2.41381 6.39398 2.60006L6.93398 3.40006C7.05539 3.58442 7.22067 3.73574 7.41499 3.84047C7.6093 3.94519 7.82658 4.00003 8.04732 4.00006H12.0007C12.3543 4.00006 12.6934 4.14054 12.9435 4.39059C13.1935 4.64064 13.334 4.97978 13.334 5.3334V6.66673Z" stroke="#1E2939" stroke-width="1.33333" stroke-linecap="round" stroke-linejoin="round"/>
</svg>
